<!DOCTYPE svg PUBLIC "-//W3C//DTD SVG 1.1//EN" "http://www.w3.org/Graphics/SVG/1.1/DTD/svg11.dtd">
<!-- Uploaded to: SVG Repo, www.svgrepo.com, Transformed by: SVG Repo Mixer Tools -->
<svg height="800px" width="800px" version="1.1" id="Layer_1" xmlns="http://www.w3.org/2000/svg" xmlns:xlink="http://www.w3.org/1999/xlink" viewBox="-51.2 -51.2 614.40 614.40" xml:space="preserve" fill="#000000">
<g id="SVGRepo_bgCarrier" stroke-width="0">
<rect x="-51.2" y="-51.2" width="614.40" height="614.40" rx="92.16" fill="#2673a6" strokewidth="0"/>
</g>
<g id="SVGRepo_iconCarrier"> <polygon style="fill:#8ED7E0;" points="230.906,100.851 410.32,411.605 51.492,411.605 "/> <polygon style="fill:#F4BD64;" points="503.514,268.508 503.514,315.169 361.641,336.632 338.642,328.506 291.052,235.647 "/> <polygon style="fill:#26a69a;" points="503.514,315.169 503.514,361.82 378.119,355.819 378.107,355.819 338.642,328.506 350.424,307.857 "/> <polygon style="fill:#E88158;" points="503.514,221.857 503.514,268.508 322.717,259.872 271.319,248.415 295.021,211.898 "/> <polygon style="fill:#26a69a;" points="378.107,355.819 379.094,357.525 136.893,263.69 295.021,211.898 322.717,259.872 350.412,307.857 350.424,307.857 "/> <path d="M238.221,96.27c-1.555-2.694-4.428-4.353-7.539-4.353s-5.984,1.66-7.539,4.353l-37.049,64.169 c-2.404,4.164-0.977,9.488,3.186,11.892c4.166,2.404,9.489,0.977,11.892-3.186l29.51-51.111l164.336,284.638H66.345l120.79-209.215 c2.404-4.164,0.977-9.488-3.186-11.892c-4.167-2.405-9.49-0.979-11.892,3.186L43.727,407.025c-1.555,2.693-1.555,6.013,0,8.706 c1.555,2.693,4.428,4.353,7.539,4.353h358.83c3.111,0,5.984-1.66,7.539-4.353s1.555-6.013,0-8.706L238.221,96.27z"/> <path d="M327.118,221.926l15.663,0.749c0.142,0.007,0.282,0.01,0.423,0.01c4.617,0,8.466-3.628,8.688-8.29 c0.23-4.802-3.478-8.881-8.28-9.111l-15.663-0.749c-4.787-0.224-8.882,3.476-9.112,8.28 C318.609,217.617,322.316,221.696,327.118,221.926z"/> <path d="M373.828,224.159l129.051,6.169c0.142,0.007,0.282,0.01,0.423,0.01c4.617,0,8.466-3.628,8.688-8.29 c0.23-4.802-3.478-8.881-8.28-9.111l-129.051-6.169c-4.806-0.233-8.882,3.476-9.112,8.28 C365.318,219.852,369.026,223.93,373.828,224.159z"/> <path d="M256.084,215.188l-79.904,26.171c-4.57,1.496-7.061,6.413-5.565,10.983c1.203,3.669,4.61,5.998,8.273,5.998 c0.897,0,1.812-0.14,2.71-0.435l79.904-26.171c4.57-1.496,7.061-6.413,5.563-10.983 C265.569,216.182,260.648,213.691,256.084,215.188z"/> <path d="M107.098,270.807c-1.158-4.667-5.878-7.509-10.548-6.35L6.608,286.801c-4.666,1.16-7.509,5.882-6.349,10.548 c0.984,3.962,4.535,6.609,8.441,6.609c0.695,0,1.401-0.084,2.106-0.259l89.942-22.344 C105.415,280.195,108.258,275.473,107.098,270.807z"/> <path d="M503.711,259.588l-148.067-7.081c-4.781-0.23-8.882,3.478-9.112,8.28c-0.23,4.803,3.476,8.882,8.28,9.112l148.067,7.081 c0.142,0.007,0.282,0.01,0.423,0.01c4.617,0,8.466-3.629,8.688-8.29C512.221,263.897,508.513,259.818,503.711,259.588z"/> <path d="M434.407,320.366c0.142,0.007,0.282,0.01,0.423,0.01c4.617,0,8.466-3.628,8.688-8.29c0.23-4.803-3.476-8.882-8.28-9.112 l-51.885-2.482c-4.788-0.238-8.882,3.478-9.112,8.28c-0.23,4.803,3.476,8.882,8.28,9.112L434.407,320.366z"/> <path d="M503.711,306.25l-41.77-1.998c-4.801-0.237-8.882,3.478-9.112,8.28c-0.23,4.803,3.476,8.882,8.28,9.112l41.77,1.998 c0.142,0.007,0.282,0.01,0.423,0.01c4.617,0,8.466-3.628,8.688-8.29C512.221,310.559,508.513,306.48,503.711,306.25z"/> <path d="M503.711,352.9l-92.663-4.433c-4.782-0.233-8.882,3.476-9.112,8.28c-0.23,4.802,3.476,8.882,8.28,9.112l92.663,4.433 c0.142,0.007,0.282,0.01,0.423,0.01c4.617,0,8.466-3.628,8.688-8.29C512.221,357.209,508.513,353.129,503.711,352.9z"/> <path d="M167.203,275.293c-1.738,4.483,0.489,9.526,4.973,11.263l165.757,64.218c1.034,0.4,2.097,0.59,3.142,0.59 c3.49,0,6.783-2.114,8.119-5.562c1.738-4.483-0.489-9.526-4.973-11.263l-165.757-64.218 C173.979,268.584,168.939,270.81,167.203,275.293z"/> </g>
</svg>