<?xml version="1.0" standalone="no"?>
<!DOCTYPE svg PUBLIC "-//W3C//DTD SVG 20010904//EN"
 "http://www.w3.org/TR/2001/REC-SVG-20010904/DTD/svg10.dtd">
<svg version="1.0" xmlns="http://www.w3.org/2000/svg"
 width="700.000000pt" height="700.000000pt" viewBox="0 0 700.000000 700.000000"
 preserveAspectRatio="xMidYMid meet">
<metadata>
Created by potrace 1.14, written by Peter Selinger 2001-2017
</metadata>
<g transform="translate(0.000000,700.000000) scale(0.100000,-0.100000)"
fill="#000000" stroke="none">
<path d="M3134 5740 c-33 -7 -83 -39 -84 -53 0 -5 -20 -41 -43 -80 -24 -40
-57 -97 -74 -127 -17 -30 -58 -101 -92 -158 -33 -57 -61 -105 -61 -107 0 -2
-45 -81 -101 -177 -56 -95 -112 -192 -125 -215 -13 -23 -24 -56 -24 -73 0 -36
23 -85 46 -98 15 -8 12 -16 -18 -68 l-34 -59 -53 3 c-77 6 -98 -13 -178 -156
-15 -26 -133 -231 -263 -457 -131 -225 -247 -426 -258 -445 -142 -249 -249
-433 -392 -680 -160 -276 -289 -499 -318 -550 -13 -25 -28 -49 -32 -55 -4 -5
-21 -35 -37 -65 -29 -53 -149 -261 -259 -447 -30 -50 -54 -96 -54 -102 0 -6
-4 -11 -10 -11 -5 0 -10 -4 -10 -10 0 -5 -14 -32 -31 -60 -60 -98 -59 -164 3
-210 l32 -23 2473 -1 c1360 -1 2485 2 2500 7 73 20 105 91 74 162 -10 22 -85
157 -168 300 -83 143 -159 276 -170 295 -11 19 -30 52 -42 72 l-23 37 87 -4
c97 -6 105 -8 105 -34 0 -26 38 -71 69 -82 14 -6 67 -12 116 -14 50 -3 137 -7
195 -10 58 -3 155 -8 215 -10 106 -5 202 -10 405 -19 52 -3 156 -8 230 -12
165 -9 173 -8 211 12 32 16 59 66 59 107 0 35 -41 90 -75 101 -17 6 -32 12
-35 14 -3 2 -5 92 -5 199 -1 168 1 196 15 200 86 27 122 101 85 173 -15 29
-60 60 -87 60 -10 0 -13 42 -13 200 l-1 200 33 11 c41 13 83 66 83 103 0 45
-29 93 -65 110 -18 9 -37 16 -42 16 -5 0 -8 90 -8 199 l0 200 25 6 c64 16 103
91 81 158 -19 58 -64 74 -221 81 -74 4 -175 9 -225 11 -49 3 -142 7 -205 10
-63 3 -155 7 -205 10 -49 2 -139 6 -200 9 -128 6 -356 17 -435 21 -30 2 -138
6 -241 10 l-185 7 -31 -26 c-17 -15 -35 -40 -38 -57 l-7 -30 -94 3 c-87 2 -94
4 -94 23 0 31 -37 84 -68 96 -29 12 -100 18 -224 19 -91 2 -129 -18 -150 -76
l-12 -35 -84 2 c-46 2 -89 8 -96 13 -11 9 -94 148 -185 309 -32 57 -44 78
-255 441 -108 186 -196 341 -196 343 0 3 -8 17 -19 31 -10 15 -32 52 -49 82
-67 123 -221 382 -237 400 -23 26 -64 38 -101 30z"/>
<path d="M1095 3329 c-126 -33 -239 -61 -250 -63 -11 -2 -40 -9 -65 -16 -96
-24 -207 -52 -240 -60 -19 -4 -91 -22 -160 -39 -69 -17 -132 -33 -141 -35 -8
-2 -47 -12 -85 -21 -38 -10 -83 -26 -100 -36 -81 -49 -63 -175 29 -206 38 -13
70 -6 1161 267 173 43 198 57 217 120 21 68 -29 139 -103 145 -18 1 -136 -24
-263 -56z"/>
</g>
</svg>
