<?xml version="1.0" standalone="no"?>
<!DOCTYPE svg PUBLIC "-//W3C//DTD SVG 20010904//EN"
 "http://www.w3.org/TR/2001/REC-SVG-20010904/DTD/svg10.dtd">
<svg version="1.0" xmlns="http://www.w3.org/2000/svg"
 width="700.000000pt" height="700.000000pt" viewBox="0 0 700.000000 700.000000"
 preserveAspectRatio="xMidYMid meet">
<metadata>
Created by potrace 1.14, written by Peter Selinger 2001-2017
</metadata>
<g transform="translate(0.000000,700.000000) scale(0.100000,-0.100000)"
fill="#000000" stroke="none">
<path d="M3164 5358 c-20 -9 -60 -72 -139 -213 -16 -29 -53 -93 -81 -142 -230
-393 -254 -438 -254 -463 0 -26 26 -77 41 -82 8 -3 3 -21 -16 -54 l-28 -50
-54 0 c-60 1 -77 -12 -120 -93 -18 -33 -226 -394 -403 -701 -123 -212 -222
-383 -248 -429 -14 -25 -38 -68 -55 -95 -16 -28 -38 -66 -48 -83 -10 -18 -93
-162 -185 -320 -92 -159 -178 -308 -191 -332 -14 -24 -90 -156 -169 -293 -151
-261 -162 -290 -126 -334 9 -12 27 -27 39 -33 28 -14 4129 -16 4167 -1 33 12
59 53 58 90 -1 33 -15 61 -206 389 -75 128 -136 235 -136 236 0 7 145 -6 153
-14 6 -6 8 -11 3 -11 -4 0 1 -13 10 -30 29 -48 41 -51 359 -65 72 -4 164 -8
205 -10 227 -12 418 -19 516 -19 92 -1 113 2 128 16 50 50 34 137 -29 163
l-35 15 0 165 c0 139 2 165 15 165 24 0 74 53 79 84 7 40 -18 84 -59 103 l-35
17 0 163 0 163 24 6 c68 17 94 111 44 160 -14 14 -33 27 -44 28 -18 3 -19 14
-22 168 l-2 165 31 13 c56 23 79 82 53 136 -21 43 -49 53 -179 59 -110 5 -216
11 -395 20 -52 2 -153 7 -225 10 -71 3 -173 8 -225 11 -52 3 -138 7 -190 9
-52 2 -157 7 -232 10 -154 7 -179 0 -204 -60 -10 -24 -18 -31 -36 -29 -13 1
-47 3 -75 3 -46 1 -53 4 -53 21 0 32 -29 68 -63 79 -18 6 -78 12 -134 14 -120
4 -159 -10 -170 -64 l-6 -31 -73 5 c-40 3 -77 8 -83 11 -6 4 -31 44 -56 89
-25 45 -50 89 -55 97 -8 12 -123 212 -200 345 -9 17 -70 122 -135 235 -65 113
-165 286 -222 385 -66 116 -113 186 -130 197 -31 20 -67 22 -99 6z"/>
<path d="M1565 3374 c-77 -20 -147 -37 -155 -39 -130 -29 -757 -189 -774 -196
-44 -21 -64 -85 -40 -131 17 -33 66 -58 100 -52 18 3 255 61 329 80 11 3 31 7
45 10 14 3 57 14 95 24 39 10 81 21 95 24 14 2 108 26 210 51 102 26 198 49
215 52 93 16 143 87 109 155 -13 25 -61 59 -81 57 -4 0 -71 -16 -148 -35z"/>
</g>
</svg>
